<svg width="180" height="180" viewBox="0 0 180 180" fill="none" xmlns="http://www.w3.org/2000/svg">
  <defs>
    <linearGradient id="bg" x1="20" y1="18" x2="160" y2="162" gradientUnits="userSpaceOnUse">
      <stop stop-color="#0B1220" />
      <stop offset="1" stop-color="#111827" />
    </linearGradient>
    <linearGradient id="accent" x1="42" y1="38" x2="138" y2="144" gradientUnits="userSpaceOnUse">
      <stop stop-color="#38BDF8" />
      <stop offset="1" stop-color="#22C55E" />
    </linearGradient>
  </defs>
  <rect x="10" y="10" width="160" height="160" rx="38" fill="url(#bg)" />
  <rect x="22" y="22" width="136" height="136" rx="30" stroke="url(#accent)" stroke-width="2" opacity="0.35" />
  <path d="M45 62L31 90L45 118" stroke="url(#accent)" stroke-width="10" stroke-linecap="round" stroke-linejoin="round" />
  <path d="M135 62L149 90L135 118" stroke="url(#accent)" stroke-width="10" stroke-linecap="round" stroke-linejoin="round" />
  <path d="M73 52L57 128" stroke="#E5E7EB" stroke-width="12" stroke-linecap="round" />
  <path d="M91 52C104 52 112 59 112 70C112 79 106 84 99 86C107 88 114 94 114 104C114 117 104 128 87 128H63V52H91Z" fill="#E5E7EB" />
  <path d="M85 63H74V80H87C94 80 98 76 98 71C98 65 94 63 85 63Z" fill="#0B1220" opacity="0.9" />
  <path d="M84 93H74V117H88C96 117 101 112 101 105C101 98 96 93 84 93Z" fill="#0B1220" opacity="0.9" />
  <path d="M121 58H135V120H121V58Z" fill="#E5E7EB" />
  <path d="M121 58H147V71H121V58Z" fill="#E5E7EB" />
  <path d="M121 84H142V96H121V84Z" fill="#E5E7EB" />
</svg>